<svg xmlns="http://www.w3.org/2000/svg" viewBox="0 0 443.52 442.37" fill="#3498DB">
	<path d="M214.27,102.53v-4c0-21.32-18.43-36.29-44.35-36.29-23,0-46.66,15.55-46.66,49v58.18H178V230.4H123.26v212H54.14v-212H0V169.35H54.14V105.41C54.14,38,105.41,0,169.92,0c34,0,61.63,9.79,80.07,25.34C270.15,8.64,299,0,330.05,0c74.88,0,113.47,47.81,113.47,96.19v6.34c0,19-16.13,34-35.13,34s-34-14.4-34-34v-4c0-21.32-18.43-36.29-44.35-36.29-23,0-46.66,15.55-46.66,49v58.18h54.72V230.4H283.39v212H214.27ZM374.4,169.35h69.12v273H374.4Z"/>
</svg>
